<svg xmlns="http://www.w3.org/2000/svg" width="20px" version="1.0" preserveAspectRatio="xMidYMid meet" viewBox="31.9 32.03 192.2 191.97" height="20px">

<g transform="translate(0.000000,256.000000) scale(0.100000,-0.100000)" fill="#000000" stroke="none">
<path d="M1161 2224 c-253 -68 -410 -331 -346 -579 67 -256 329 -415 580 -350 256 67 415 329 350 578 -67 259 -333 419 -584 351z" style="&#10;    fill: #fff;&#10;"/>
<path d="M1090 1025 c-293 -40 -587 -162 -694 -286 -64 -76 -71 -98 -74 -267 l-3 -152 961 0 961 0 -3 152 c-2 123 -7 160 -21 189 -66 133 -241 239 -517 315 -220 60 -413 76 -610 49z" style="&#10;    fill: #fff;&#10;"/>
</g>
</svg>
